<svg xmlns="http://www.w3.org/2000/svg" xmlns:xlink="http://www.w3.org/1999/xlink"
  viewBox="0 0 395.52 247.2" height="247.2" width="395.52">
  <g>
    <svg></svg>
  </g>
  <g>
    <svg viewBox="0 0 395.52 247.2" height="247.2" width="395.52">
      <g transform="matrix(1,0,0,1,75.54432,99.65871997749964)">
        <svg
          viewBox="0 0 244.43135999999998 47.8825600450007"
          height="47.8825600450007"
          width="244.43135999999998"
        >
          <g>
            <svg
              viewBox="0 0 244.43135999999998 47.8825600450007"
              height="47.8825600450007"
              width="244.43135999999998"
            >
              <g>
                <svg
                  viewBox="0 0 244.43135999999998 47.8825600450007"
                  height="47.8825600450007"
                  width="244.43135999999998"
                >
                  <g>
                    <svg
                      viewBox="0 0 244.43135999999998 47.8825600450007"
                      height="47.8825600450007"
                      width="244.43135999999998"
                    >
                      <g id="textblocktransform">
                        <svg
                          viewBox="0 0 244.43135999999998 47.8825600450007"
                          height="47.8825600450007"
                          width="244.43135999999998"
                          id="textblock"
                        >
                          <g>
                            <svg
                              viewBox="0 0 244.43135999999998 47.8825600450007"
                              height="47.8825600450007"
                              width="244.43135999999998"
                            >
                              <g transform="matrix(1,0,0,1,0,0)">
                                <svg
                                  width="244.43135999999998"
                                  viewBox="0.30000001192092896 -34.18000030517578 177.75999450683594 34.83000183105469"
                                  height="47.8825600450007"
                                  data-palette-color="#7f8cd9"
                                >
                                  <path
                                    d="M11.53-27.75L0.3-27.75 0.3-31.85 25.4-31.85 25.4-27.75 14.15-27.75 15.23-28.85 15.23 0 10.48 0 10.48-28.85 11.53-27.75ZM45.25 0L41.1 0 40.5-5.53 40.5-15.55Q40.5-18.5 39.27-19.84 38.05-21.18 35.4-21.18L35.4-21.18Q33.9-21.18 32.73-20.74 31.57-20.3 30.91-19.43 30.25-18.55 30.25-17.23L30.25-17.23 25-17.23Q25-19.88 26.3-21.53 27.6-23.18 29.93-23.94 32.27-24.7 35.4-24.7L35.4-24.7Q38.32-24.7 40.55-23.74 42.77-22.78 44.01-20.73 45.25-18.68 45.25-15.43L45.25-15.43 45.25 0ZM33.05 0.65L33.05 0.65Q30.02 0.65 28.02-0.41 26.02-1.48 25.03-3.2 24.05-4.93 24.05-6.88L24.05-6.88Q24.05-9.25 25.26-10.79 26.47-12.33 28.62-13.08 30.77-13.83 33.57-13.83L33.57-13.83Q35.5-13.83 37.32-13.48 39.15-13.13 40.92-12.55L40.92-12.55 40.92-9.68Q39.47-10.2 37.71-10.51 35.95-10.83 34.42-10.83L34.42-10.83Q32.15-10.83 30.62-9.93 29.1-9.03 29.1-6.88L29.1-6.88Q29.1-5.3 30.3-4.16 31.5-3.03 34.1-3.03L34.1-3.03Q36-3.03 37.45-3.89 38.9-4.75 39.7-6.05 40.5-7.35 40.5-8.65L40.5-8.65 41.65-8.65Q41.65-6.15 40.63-4.04 39.62-1.93 37.7-0.64 35.77 0.65 33.05 0.65ZM63.07 0.65L63.07 0.65Q59.57 0.65 57.17-0.34 54.77-1.33 53.51-3.09 52.24-4.85 52.19-7.23L52.19-7.23 56.67-7.23Q56.77-5.15 58.33-4.15 59.89-3.15 62.57-3.15L62.57-3.15Q63.99-3.15 65.16-3.6 66.32-4.05 67.01-4.83 67.69-5.6 67.69-6.58L67.69-6.58Q67.69-7.8 66.8-8.51 65.89-9.22 63.89-9.78L63.89-9.78 58.97-11.45Q56.02-12.45 54.44-14.11 52.87-15.78 52.87-18.1L52.87-18.1Q52.87-21.08 55.52-22.89 58.17-24.7 62.54-24.7L62.54-24.7Q67.07-24.7 69.53-22.79 72-20.88 72.09-18L72.09-18 67.52-18Q67.34-19.43 66.11-20.19 64.87-20.95 62.54-20.95L62.54-20.95Q60.37-20.95 59.13-20 57.89-19.05 57.89-17.85L57.89-17.85Q57.89-15.7 61.59-14.65L61.59-14.65 66.77-12.83Q69.72-11.88 71.32-10.38 72.92-8.88 72.92-6.58L72.92-6.58Q72.92-4.73 71.69-3.08 70.47-1.43 68.26-0.39 66.05 0.65 63.07 0.65ZM85.34 0L80.59 0 80.59-34.18 85.34-34.18 85.34 0ZM84.67-9.3L84.67-14.28 96.09-24.05 102.62-24.05 84.67-9.3ZM103.19 0L97.39 0 86.24-15.25 90.89-16.23 103.19 0ZM109.37 0L109.37-31.85 116.19-31.85 126.29-10.93 125.84-10.93 135.94-31.85 142.54-31.85 142.54 0 137.74 0 137.74-26.63 138.52-26.63 127.62-3.78 124.49-3.78 113.64-26.5 114.12-26.5 114.12 0 109.37 0ZM152.29 0L152.29-31.85 162.04-31.85Q166.89-31.85 170.48-29.89 174.06-27.93 176.06-24.35 178.06-20.78 178.06-15.93L178.06-15.93Q178.06-11.1 176.06-7.53 174.06-3.95 170.48-1.98 166.89 0 162.04 0L162.04 0 152.29 0ZM162.04-27.58L157.04-27.58 157.04-4.2 162.04-4.2Q165.44-4.2 167.88-5.73 170.31-7.25 171.64-9.9 172.96-12.55 172.96-15.93L172.96-15.93Q172.96-19.3 171.64-21.94 170.31-24.58 167.88-26.08 165.44-27.58 162.04-27.58L162.04-27.58Z"
                                    opacity="1"
                                    transform="matrix(1,0,0,1,0,0)"
                                    fill="#7f8cd9"
                                    className="wordmark-text-0"
                                    data-fill-palette-color="primary"
                                    id="text-0"
                                  ></path>
                                </svg>
                              </g>
                            </svg>
                          </g>
                        </svg>
                      </g>
                    </svg>
                  </g>
                </svg>
              </g>
            </svg>
          </g>
        </svg>
      </g>
      <g>
        <path
          d="M245.816 0c68.262 0 123.6 55.338 123.6 123.6 0 68.262-55.338 123.6-123.6 123.6-58.062 0-106.774-40.035-120.035-94.007l2.225 0c13.213 52.767 60.947 91.848 117.81 91.848 67.07 0 121.441-54.371 121.441-121.441 0-67.07-54.371-121.441-121.441-121.441-56.862 0-104.597 39.081-117.81 91.848l-2.225 0c13.261-53.971 61.973-94.007 120.035-94.007z"
          fill="#7f8cd9"
          stroke="transparent"
          data-fill-palette-color="tertiary"
        ></path>
      </g>
    </svg>
  </g>
  <defs></defs>
</svg>

